<svg width="112" height="38" viewBox="0 0 112 38" fill="none" xmlns="http://www.w3.org/2000/svg">
<path d="M85.2654 0.211011C85.1983 0.337645 86.0485 0.970812 87.1671 1.64619C89.5385 3.03916 91.4177 4.36881 91.4177 4.62208C91.4177 4.85424 90.1873 5.27635 89.5385 5.27635C89.27 5.27635 88.666 4.89645 88.1738 4.43213C87.1671 3.44017 86.4064 3.29243 86.6301 4.09444C86.8538 4.95977 86.563 5.0864 85.4668 4.64318C83.7889 3.9467 83.6099 4.11554 84.7732 5.23414C85.3549 5.78288 85.8247 6.35274 85.8247 6.50047C85.8247 6.64821 85.9142 6.75374 86.0261 6.75374C86.1603 6.75374 86.5406 7.04922 86.8986 7.40801C87.525 8.06229 88.0619 8.08339 88.0619 7.49244C88.0619 7.28138 88.7107 7.19696 90.8137 7.13364C93.1851 7.04922 93.6102 7.09143 94.1471 7.42912C94.7064 7.78792 94.7512 7.95676 94.8183 9.34973C94.863 10.595 94.9525 10.8693 95.2881 10.9326C95.5789 10.996 95.9369 10.5105 96.8094 8.71656C97.4358 7.47133 98.0622 6.37384 98.1741 6.31052C98.3083 6.2261 98.9347 6.09947 99.5612 6.03615C100.769 5.86731 102.246 5.4663 103.454 4.93866C104.595 4.43213 104.438 3.77785 103.051 3.31353C102.022 2.97584 101.821 2.95474 100.747 3.25022C100.12 3.41906 99.0242 3.67233 98.3307 3.82007C96.966 4.09444 97.4358 4.19997 92.3126 2.32157C89.449 1.26629 85.78 -4.52329e-05 85.601 -4.52329e-05C85.4892 -4.52329e-05 85.3326 0.105483 85.2654 0.211011Z" fill="white"/>
<path d="M15.6884 5.31854C15.6212 5.46628 15.5989 9.62408 15.6212 14.5628L15.6884 23.5327H17.59H19.4916L19.6035 21.3588L19.7153 19.206L22.0644 21.4221L24.4135 23.6382H26.8073C28.1496 23.6382 29.2234 23.5749 29.2234 23.4904C29.2234 23.406 27.9035 22.0764 26.2927 20.5568L23.362 17.7919L25.9571 15.2804C27.3889 13.9085 28.5523 12.7055 28.5523 12.6211C28.5523 12.5155 27.5008 12.4522 26.2256 12.4522H23.8765L21.7959 14.3939L19.7153 16.3568L19.6035 10.7638L19.4916 5.1708L17.6347 5.10748C16.2924 5.06527 15.7555 5.12859 15.6884 5.31854Z" fill="white"/>
<path d="M53.0944 5.19191C53.005 5.27633 52.9378 7.19694 52.9378 9.43413V13.5286L51.8864 12.9377C50.9691 12.4311 50.5664 12.3467 49.1346 12.3467C47.1659 12.3467 46.271 12.6844 45.0629 13.8663C42.7138 16.1668 42.7138 20.0924 45.1076 22.3296C46.3157 23.4693 47.0316 23.7437 49.0227 23.7437C50.6559 23.7437 50.902 23.6804 51.864 23.0683C52.9826 22.3507 53.1616 22.3719 53.1616 23.1528C53.1616 23.6382 53.2063 23.6593 55.0184 23.596L56.8529 23.5327V14.3517V5.1708L55.0632 5.10748C54.0564 5.08638 53.1839 5.10748 53.0944 5.19191ZM51.7521 15.8291C52.647 16.3357 53.2287 17.5809 53.0497 18.5306C52.9826 18.9105 52.6246 19.5226 52.2667 19.9025C51.685 20.5146 51.5284 20.5779 50.2979 20.5779C48.7095 20.5779 48.0384 20.1347 47.5686 18.7839C47.3001 18.0452 47.3225 17.8342 47.7028 17.0743C48.4411 15.5125 50.2532 14.9638 51.7521 15.8291Z" fill="white"/>
<path d="M3.9207 12.5367C2.13094 13.1276 0.810986 14.6261 0.251685 16.6522C-0.0838951 17.9186 -0.0838951 18.1085 0.251685 19.396C0.721498 21.1477 1.52689 22.2874 2.93633 23.1105C3.89833 23.6804 4.21154 23.7437 5.82232 23.7437C7.50023 23.7437 7.72395 23.6804 8.70832 23.0683L9.7598 22.393V23.005V23.6382H11.7733H13.7868V18.0452V12.4522H11.7733C9.78217 12.4522 9.7598 12.4522 9.7598 12.9799C9.7598 13.5919 9.6032 13.6341 9.06627 13.1698C8.05953 12.3045 5.50911 11.9879 3.9207 12.5367ZM8.39511 15.7025C9.31236 16.1668 9.7598 16.9266 9.7598 18.1085C9.7598 18.9105 9.62557 19.2693 9.11101 19.8392C8.50697 20.5357 8.39511 20.5779 7.07516 20.5779C5.79995 20.5779 5.64335 20.5357 5.0393 19.8814C3.85358 18.6151 4.27865 16.209 5.82232 15.6181C6.5606 15.3226 7.70157 15.3859 8.39511 15.7025Z" fill="white"/>
<path d="M32.8254 12.3889C31.9976 12.5578 30.6553 13.402 29.9841 14.2251C27.5903 17.0532 28.3062 21.211 31.5278 23.1528C32.3556 23.6593 32.7135 23.7226 34.3019 23.7437C36.0022 23.7437 36.2035 23.7015 37.1208 23.0683C38.1947 22.3507 38.396 22.3719 38.396 23.1528C38.396 23.6171 38.4631 23.6382 40.2976 23.6382H42.1993L42.1545 18.0874L42.0874 12.5578L40.2529 12.4944C38.5526 12.4311 38.396 12.4733 38.396 12.8321C38.396 13.4864 38.1723 13.5075 37.2327 12.9588C36.3378 12.41 34.0782 12.1356 32.8254 12.3889ZM36.83 15.6814C37.5906 16.0402 38.396 17.2432 38.396 18.0452C38.396 18.8472 37.5906 20.0502 36.83 20.409C36.1588 20.7256 35.0626 20.7678 34.2796 20.4723C33.0491 20.0502 32.4003 17.9186 33.1162 16.7156C33.765 15.5759 35.5548 15.0693 36.83 15.6814Z" fill="white"/>
<path d="M62.6697 12.4311C60.9246 12.8532 59.202 14.2673 58.5085 15.7869C57.9268 17.0532 57.9492 19.2693 58.5308 20.4301C59.0901 21.5276 60.2758 22.6462 61.5063 23.2583C62.7591 23.8915 65.936 23.9548 67.4796 23.3638C68.5311 22.9628 70.1643 21.6332 70.1643 21.1688C70.1643 20.9156 68.1284 19.8392 67.6362 19.8392C67.502 19.8392 67.1664 20.0502 66.8756 20.3035C66.4282 20.7045 66.0702 20.7889 64.9069 20.7889C63.6316 20.7889 63.4079 20.7256 62.8039 20.1769C62.4236 19.8181 62.1103 19.3326 62.1103 19.0583V18.5728H66.361H70.6117V17.6442C70.6117 14.6472 68.3521 12.5155 64.9516 12.3467C64.0567 12.2834 63.05 12.3256 62.6697 12.4311ZM65.3543 14.7738C65.8017 14.7738 66.5848 15.6181 66.5848 16.0824C66.5848 16.3779 66.4058 16.4623 65.757 16.4834C64.1686 16.5467 62.4459 16.4201 62.267 16.2723C62.1775 16.1668 62.3564 15.808 62.6697 15.4492C63.2066 14.8372 64.0791 14.5417 64.7502 14.7105C64.9292 14.7316 65.1977 14.7738 65.3543 14.7738Z" fill="white"/>
<path d="M77.8827 12.3889C77.6366 12.4522 77.0996 12.7266 76.6969 13.0221C75.9139 13.5708 75.5336 13.5286 75.5336 12.8532C75.5336 12.4944 75.3546 12.4522 73.632 12.4522H71.7303V18.0452V23.6382H73.632H75.5336V20.2613C75.5336 16.5045 75.7349 15.7869 76.8312 15.3859C77.5694 15.1115 78.7552 15.3015 79.1355 15.7658C79.3592 15.998 79.4711 17.1377 79.5606 19.8181L79.6724 23.5327L81.6412 23.596L83.5875 23.6593V20.3035C83.5875 16.5256 83.7665 15.7869 84.7285 15.407C85.4668 15.1115 86.9881 15.3859 87.3237 15.8924C87.4131 16.0191 87.5474 17.8131 87.6145 19.8392L87.7264 23.5327L89.6951 23.596L91.6862 23.6593L91.5967 19.1638C91.5296 14.1407 91.4625 13.9507 89.8293 12.9799C88.0843 11.9246 86.0932 12.0301 84.3482 13.2754L83.2072 14.0774L82.4242 13.3809C81.2832 12.41 79.4934 12.0301 77.8827 12.3889Z" fill="white"/>
<path d="M102.604 12.4311C99.5611 13.3598 98.0398 15.9769 98.5991 19.2693C98.8229 20.5568 99.1584 21.2322 100.12 22.2241C101.821 23.997 104.998 24.3558 107.123 23.005L108.085 22.393L108.152 23.005L108.219 23.6382H110.121H112L111.955 18.0874L111.888 12.5578L110.054 12.4945C108.353 12.4311 108.197 12.4734 108.197 12.8321C108.197 13.4864 107.973 13.5075 107.033 12.9588C106.071 12.3889 103.678 12.0935 102.604 12.4311ZM107.347 16.1879C109.651 18.3618 106.877 21.802 103.968 20.3668C102.112 19.4593 102.313 16.4201 104.282 15.597C105.154 15.2382 106.631 15.5337 107.347 16.1879Z" fill="white"/>
<path d="M93.4089 12.811C93.3641 13.0221 93.3417 15.5548 93.3865 18.4251L93.4536 23.6593L95.2881 23.596L97.1226 23.5327V18.0452V12.5578L95.3105 12.4944C93.6997 12.4522 93.476 12.4733 93.4089 12.811Z" fill="white"/>
<path d="M44.4141 28.6613C42.7138 29.5055 41.9084 30.6874 41.7965 32.5236C41.6623 34.7397 42.5125 36.1327 44.5931 37.1246C45.9801 37.7789 48.799 37.7156 49.9847 37.0191C50.0295 36.998 49.94 36.597 49.8057 36.1116C49.582 35.3096 49.5373 35.2673 49.0003 35.4573C48.1278 35.7739 46.3828 35.7106 45.8235 35.3307C45.0852 34.8452 44.6602 33.9166 44.6602 32.8191C44.6602 30.9196 45.913 29.8221 47.837 30.0332C48.4634 30.1176 49.0898 30.2653 49.2464 30.392C49.4925 30.5819 49.6044 30.4553 49.7834 29.8221C50.1189 28.7246 50.1189 28.7457 49.2241 28.3869C47.8594 27.8593 45.8011 27.9648 44.4141 28.6613Z" fill="white"/>
<path d="M52.4904 32.9035V37.5679H53.9446H55.3764L55.4435 35.9216L55.5106 34.2965L57.2333 34.1488C59.2468 33.9799 60.164 33.5789 60.7681 32.6503C61.3274 31.7849 61.3274 31.004 60.7681 29.991C60.0745 28.7035 59.1797 28.408 55.5778 28.3236L52.4904 28.2392V32.9035ZM57.5912 29.9699C57.9492 30.2864 58.0834 30.6663 58.0834 31.2362C58.0834 32.3759 57.457 32.9669 56.3384 32.8824L55.5106 32.8191L55.4435 31.4684C55.3988 30.7297 55.4212 29.991 55.4883 29.8432C55.6672 29.4 57.0319 29.4844 57.5912 29.9699Z" fill="white"/>
<path d="M63.2737 32.8613L63.3408 37.4624L64.7502 37.5257L66.1373 37.589V35.6051C66.1373 32.6503 66.4729 32.587 67.7257 35.3096L68.7325 37.4624L70.3432 37.5257C71.4619 37.5679 71.954 37.5046 71.954 37.3357C71.954 37.2091 71.3947 36.1538 70.7236 34.9719C70.0524 33.8111 69.4931 32.7558 69.4931 32.6292C69.4931 32.5237 70.0524 31.5317 70.7236 30.4764C71.3947 29.4 71.954 28.4714 71.954 28.4081C71.954 28.3447 71.2158 28.2814 70.3209 28.2814H68.6877L67.681 30.0965C67.1217 31.0885 66.5847 31.9116 66.4729 31.8905C66.3387 31.8905 66.2268 31.0674 66.1821 30.0754L66.1149 28.2814H64.6608H63.2289L63.2737 32.8613Z" fill="white"/>
</svg>
