<svg width="291" height="88" viewBox="0 0 291 88" fill="none" xmlns="http://www.w3.org/2000/svg">
<g clip-path="url(#clip0_169_2)">
<path fill-rule="evenodd" clip-rule="evenodd" d="M31.9014 52.798H16.8091V71.1306H26.8892V66.4202H31.9014C36.9259 66.4202 42.8873 64.5451 42.8873 59.5946C42.8853 55.7389 39.3051 52.798 31.9014 52.798ZM33.4263 59.4725C33.2447 61.8919 30.393 63.9987 26.8892 63.9987V54.0749C30.5126 54.0749 33.7317 55.3871 33.4263 59.4725Z" fill="white"/>
<path fill-rule="evenodd" clip-rule="evenodd" d="M44.0037 52.7959V71.1285H53.6979V62.521L61.2626 71.1285H70.9176L63.4189 62.5334L70.9176 52.7959H60.9985L53.6979 62.1485V52.7959H44.0037Z" fill="white"/>
<path d="M27.2833 35.8623C28.0633 37.5614 28.6741 39.2151 29.2436 41.0632C29.5924 40.0181 29.97 39.0081 30.3806 37.9712C31.3215 35.6056 32.5101 33.3332 34.0433 31.3878C36.4142 28.3786 39.6724 26.0213 43.8634 24.5084C43.8654 24.5084 43.8654 24.5084 43.8675 24.5104C43.8696 24.5104 43.8696 24.5104 43.8716 24.5084C48.0625 26.0213 51.3208 28.3806 53.6917 31.3878C55.2249 33.3353 56.4134 35.6056 57.3544 37.9712C57.7671 39.0081 58.1426 40.0181 58.4934 41.0632C59.065 39.2151 59.6737 37.5614 60.4537 35.8623C61.6712 33.2132 63.2229 30.7979 65.241 28.7821C67.3148 26.7084 69.9932 25.1437 73.1152 23.9082V14.6674H61.4153V21.9979H49.7195V14.6674H43.8696H38.0196V21.9979H26.3217V14.6674H14.6198V23.9123C17.7418 25.1458 20.4202 26.7104 22.494 28.7842C24.5121 30.7979 26.0659 33.2132 27.2833 35.8623Z" fill="white"/>
<path d="M58.4893 49.1285C56.5434 37.1972 52.0533 28.72 43.8654 26.2448C35.6796 28.718 31.1874 37.1972 29.2436 49.1285C27.3122 36.9116 22.82 28.2295 14.6198 25.715V73.3306H43.8654H73.1111V25.717C64.9129 28.2295 60.4207 36.9116 58.4893 49.1285ZM49.4327 31.3961V31.3816C50.1075 32.048 50.743 32.7806 51.3105 33.5153C52.6744 35.4173 53.702 37.4828 54.5254 39.6435H49.4327V31.3961ZM44.6496 28.1902C45.7845 28.6248 46.8657 29.2499 47.8521 30.0115V39.6455H44.6496V28.1902ZM39.8809 30.0115C40.8672 29.2499 41.9485 28.6248 43.0834 28.1902V39.6455H39.8809V30.0115ZM36.4225 33.5174C36.9899 32.7827 37.6255 32.0501 38.3002 31.3836V31.3981V39.6476H33.2076C34.033 37.4849 35.0585 35.4194 36.4225 33.5174ZM30.9935 47.9074C31.4123 45.6516 31.9385 43.4102 32.6546 41.235H38.3002V44.9727L39.0844 46.0448L39.8809 44.9727V41.235H43.0834V44.9727L43.8675 46.0469L44.6516 44.9727V41.235H47.8541V44.9727L48.6506 46.0448L49.4348 44.9727V41.235H55.0804C55.7965 43.4102 56.3227 45.6516 56.7415 47.9074L57.2698 50.5959H30.5374L30.9935 47.9074ZM16.0828 27.9915C18.0018 28.9829 19.7269 30.2826 21.1176 31.9259C23.7259 35.0655 25.2384 38.8011 26.3321 42.7148C27.0213 45.2004 27.5805 48.0523 28.0117 50.5938H16.0828V27.9915ZM71.6502 71.8653H16.0828V52.0653H71.6502V71.8653ZM71.6502 50.5959H59.7191C60.1525 48.0544 60.7096 45.2025 61.3988 42.7168C62.4925 38.8032 64.005 35.0655 66.6132 31.9279C68.004 30.2847 69.7311 28.9808 71.6481 27.9895V50.5959H71.6502Z" fill="white"/>
<path d="M93.294 30.4668H90.5805V33.8134H87.7288V22.0104H93.294C95.8341 22.0104 97.7758 23.7137 97.7758 26.2427C97.7738 28.7635 95.832 30.4668 93.294 30.4668ZM90.5805 24.4173V28.0578H93.0938C94.1771 28.0578 94.854 27.2486 94.854 26.2324C94.854 25.1376 94.1421 24.4153 93.0938 24.4153H90.5805V24.4173Z" fill="white"/>
<path d="M107.123 29.641C107.123 32.1266 105.225 33.9872 102.65 33.9872C100.075 33.9872 98.1761 32.1266 98.1761 29.641C98.1761 27.1554 100.075 25.2948 102.65 25.2948C105.225 25.2948 107.123 27.1554 107.123 29.641ZM100.881 29.641C100.881 30.771 101.61 31.5616 102.65 31.5616C103.69 31.5616 104.418 30.771 104.418 29.641C104.418 28.511 103.69 27.7204 102.65 27.7204C101.61 27.7204 100.881 28.511 100.881 29.641Z" fill="white"/>
<path d="M111.023 33.8133H108.291V21.5778H111.021V33.8133H111.023Z" fill="white"/>
<path d="M112.486 22.9065C112.486 22.0207 113.093 21.4039 113.978 21.4039C114.864 21.4039 115.487 22.0124 115.487 22.9065C115.487 23.7923 114.864 24.4007 113.978 24.4007C113.103 24.4007 112.486 23.7923 112.486 22.9065ZM115.357 33.8133H112.625V25.4707H115.355V33.8133H115.357Z" fill="white"/>
<path d="M120.297 27.7038V30.3984C120.297 31.8141 121.553 31.694 122.872 31.3815L123.062 33.6063C122.455 33.8319 121.545 33.9892 120.852 33.9892C118.945 33.9892 117.567 33.0682 117.567 30.8434V27.7059H116.24V25.4728H117.567V22.7968H120.21V25.4728H122.558V27.7059H120.297V27.7038Z" fill="white"/>
<path d="M131.52 33.24C130.87 33.6146 129.681 33.9872 128.408 33.9872C125.321 33.9872 123.476 32.2673 123.476 29.641C123.476 27.0146 125.288 25.2948 127.742 25.2948C130.152 25.2948 132.292 26.8843 131.685 30.3447H126.138C126.277 31.3091 127.308 31.6733 128.427 31.6733C129.527 31.6733 130.62 31.4395 131.148 31.187L131.52 33.24ZM129.25 28.7366C129.25 28.0846 128.703 27.4679 127.785 27.4679C126.78 27.4679 126.217 28.0495 126.147 28.7366H129.25Z" fill="white"/>
<path d="M137.122 25.2969C138.076 25.2969 138.839 25.4273 139.861 25.8536L139.66 28.1819C139.054 27.9294 138.309 27.7742 137.605 27.7742C136.357 27.7742 135.247 28.2357 135.247 29.6431C135.247 30.8517 136.227 31.4767 137.457 31.4767C138.358 31.4767 138.913 31.276 139.693 30.9035L139.962 33.3021C139 33.7637 138.245 33.9893 137.153 33.9893C134.491 33.9893 132.517 32.2156 132.517 29.6617C132.519 26.7911 134.547 25.2969 137.122 25.2969Z" fill="white"/>
<path d="M143.923 26.1909C144.522 25.5556 145.459 25.2948 146.369 25.2948C147.937 25.2948 149.445 26.3979 149.445 28.3889V33.8112H146.715V29.1712C146.715 28.2419 145.979 27.799 145.32 27.799C144.635 27.799 143.934 28.2419 143.934 29.1712V33.8112H141.196V21.5757H143.926V26.1909H143.923Z" fill="white"/>
<path d="M156.513 33.8133V29.1733C156.513 28.244 155.776 27.8011 155.118 27.8011C154.433 27.8011 153.731 28.244 153.731 29.1733V33.8133H151.001V25.4707H153.506L153.593 26.3482C154.183 25.6011 155.188 25.2969 156.168 25.2969C157.736 25.2969 159.245 26.4 159.245 28.3909V33.8133H156.513Z" fill="white"/>
<path d="M160.627 22.9065C160.627 22.0207 161.234 21.4039 162.119 21.4039C163.004 21.4039 163.628 22.0124 163.628 22.9065C163.628 23.7923 163.004 24.4007 162.119 24.4007C161.242 24.4007 160.627 23.7923 160.627 22.9065ZM163.496 33.8133H160.766V25.4707H163.496V33.8133Z" fill="white"/>
<path d="M167.831 28.2854H168.898L170.528 25.4686H173.572L171.05 29.5106L174.197 33.8133H170.928L168.813 30.6758H167.833V33.8133H165.099V21.5778H167.829V28.2854H167.831Z" fill="white"/>
<path d="M180.369 33.8133L180.282 32.9358C179.805 33.5277 178.998 33.9872 177.828 33.9872C175.61 33.9872 173.98 32.1452 173.98 29.6513C173.98 27.1575 175.61 25.2969 177.828 25.2969C178.998 25.2969 179.805 25.7667 180.282 26.3482L180.369 25.4707H183.012V33.8133H180.369ZM176.685 29.6493C176.685 30.7793 177.422 31.5699 178.481 31.5699C179.539 31.5699 180.276 30.7793 180.276 29.6493C180.276 28.5193 179.539 27.7369 178.481 27.7287C177.422 27.7287 176.685 28.5193 176.685 29.6493Z" fill="white"/>
<path d="M193.878 26.8595L196.592 22.0269H199.755L196.175 28.1095L200.543 33.8113H197.033L193.705 29.2664H192.083V33.8113H189.231V22.0083H192.083V26.8574H193.878V26.8595Z" fill="white"/>
<path d="M206.034 25.2969C206.364 25.2969 206.701 25.3569 207.049 25.4707L206.884 27.8611C206.538 27.739 206.183 27.679 205.836 27.679C204.804 27.679 203.929 28.244 203.929 29.8004V33.8154H201.199V25.4728H203.775L203.861 26.6111C204.247 25.7832 205.071 25.2969 206.034 25.2969Z" fill="white"/>
<path d="M213.791 33.8133L213.704 32.9358C213.228 33.5277 212.421 33.9872 211.251 33.9872C209.032 33.9872 207.402 32.1452 207.402 29.6513C207.402 27.1575 209.032 25.2969 211.251 25.2969C212.421 25.2969 213.228 25.7667 213.704 26.3482L213.791 25.4707H216.434V33.8133H213.791ZM210.106 29.6493C210.106 30.7793 210.842 31.5699 211.901 31.5699C212.959 31.5699 213.696 30.7793 213.696 29.6493C213.696 28.5193 212.959 27.7369 211.901 27.7287C210.842 27.7287 210.106 28.5193 210.106 29.6493Z" fill="white"/>
<path d="M220.761 28.2854H221.828L223.458 25.4686H226.502L223.98 29.5106L227.127 33.8133H223.859L221.743 30.6758H220.763V33.8133H218.033V21.5778H220.763V28.2854H220.761Z" fill="white"/>
<path d="M235.779 29.641C235.779 32.1266 233.881 33.9872 231.306 33.9872C228.73 33.9872 226.832 32.1266 226.832 29.641C226.832 27.1554 228.73 25.2948 231.306 25.2948C233.881 25.2948 235.779 27.1554 235.779 29.641ZM229.537 29.641C229.537 30.771 230.266 31.5616 231.306 31.5616C232.346 31.5616 233.074 30.771 233.074 29.641C233.074 28.511 232.346 27.7204 231.306 27.7204C230.266 27.7204 229.537 28.511 229.537 29.641Z" fill="white"/>
<path d="M243.932 25.6342L245.544 30.9614L247 25.4686H249.782L247.329 33.8112H244.138L242.855 29.6306L241.582 33.8112H238.392L235.938 25.4686H238.72L240.168 30.9614L241.79 25.6342H243.932Z" fill="white"/>
<path d="M253.504 33.9872C252.275 33.9872 251.051 33.7699 250.255 33.4139L250.523 31.2491C251.319 31.5616 252.508 31.8058 253.271 31.8058C254.181 31.8058 254.528 31.6754 254.528 31.3195C254.528 31.0069 254.276 30.8766 253.41 30.7379L252.638 30.6158C250.904 30.3467 250.125 29.5561 250.125 28.0784C250.125 26.3834 251.616 25.2969 253.948 25.2969C255.015 25.2969 255.993 25.479 256.792 25.835L256.583 27.9646C256.055 27.7473 254.815 27.5217 254.095 27.5217C253.166 27.5217 252.724 27.6956 252.724 28.0598C252.724 28.3558 253.063 28.511 254.008 28.66L254.815 28.7904C256.418 29.0512 257.163 29.8335 257.163 31.2594C257.163 32.9255 255.75 33.9872 253.504 33.9872Z" fill="white"/>
<path d="M261.108 28.2854H262.175L263.805 25.4686H266.849L264.327 29.5106L267.474 33.8133H264.206L262.091 30.6758H261.11V33.8133H258.38V21.5778H261.11V28.2854H261.108Z" fill="white"/>
<path d="M273.648 33.8133L273.562 32.9358C273.085 33.5277 272.278 33.9872 271.108 33.9872C268.89 33.9872 267.26 32.1452 267.26 29.6513C267.26 27.1575 268.89 25.2969 271.108 25.2969C272.278 25.2969 273.085 25.7667 273.562 26.3482L273.648 25.4707H276.291V33.8133H273.648ZM269.965 29.6493C269.965 30.7793 270.702 31.5699 271.76 31.5699C272.819 31.5699 273.555 30.7793 273.555 29.6493C273.555 28.5193 272.819 27.7369 271.76 27.7287C270.702 27.7287 269.965 28.5193 269.965 29.6493Z" fill="white"/>
<path d="M87.5183 42.4271C87.5183 41.802 87.9516 41.3674 88.5748 41.3674C89.198 41.3674 89.6416 41.802 89.6416 42.4271C89.6416 43.0521 89.2 43.4867 88.5748 43.4867C87.9496 43.4867 87.5183 43.0542 87.5183 42.4271ZM87.7164 53.5699V45.2273H89.4312V53.5699H87.7164Z" fill="white"/>
<path d="M98.8696 46.6077C99.3731 45.7902 100.411 45.0514 101.841 45.0514C104.059 45.0514 105.254 46.4774 105.254 48.5014V53.5679H103.529V48.8657C103.529 47.4832 102.792 46.6843 101.571 46.6843C100.357 46.6843 99.3607 47.4501 99.3173 48.7622V53.5679H97.5923V48.8657C97.5923 47.4832 96.8556 46.6843 95.634 46.6843C94.3959 46.6843 93.3807 47.4832 93.3807 48.8657V53.5679H91.6556V45.2252H93.3807V46.2766C93.649 45.8503 94.4372 45.0514 95.9023 45.0514C97.3343 45.0535 98.3393 45.6433 98.8696 46.6077Z" fill="white"/>
<path d="M108.238 51.6141C108.844 51.6141 109.304 52.0922 109.304 52.6841C109.304 53.276 108.844 53.7438 108.238 53.7438C107.631 53.7438 107.181 53.274 107.181 52.6841C107.181 52.0922 107.631 51.6141 108.238 51.6141Z" fill="white"/>
<path d="M118.629 43.4784H114.74V41.7668H124.314V43.4784H120.441V53.5678H118.629V43.4784Z" fill="white"/>
<path d="M123.462 49.3541C123.462 46.7899 125.274 45.0514 127.639 45.0514C129.05 45.0514 129.987 45.5729 130.602 46.3635V45.2252H132.316V53.5679H130.602V52.4296C129.987 53.2202 129.05 53.7417 127.639 53.7417C125.274 53.7438 123.462 51.9184 123.462 49.3541ZM127.847 46.5995C126.244 46.5995 125.179 47.8164 125.179 49.3541C125.179 50.8918 126.246 52.1957 127.847 52.1957C129.448 52.1957 130.593 50.8918 130.593 49.3541C130.593 47.8164 129.442 46.5995 127.847 46.5995Z" fill="white"/>
<path d="M134.044 49.3541C134.044 46.7898 135.855 45.0514 138.22 45.0514C139.631 45.0514 140.568 45.5729 141.183 46.3635V41.3323H142.898V53.5678H141.183V52.4295C140.568 53.2201 139.631 53.7417 138.22 53.7417C135.855 53.7438 134.044 51.9184 134.044 49.3541ZM138.428 46.5994C136.825 46.5994 135.76 47.8164 135.76 49.3541C135.76 50.8918 136.827 52.1957 138.428 52.1957C140.03 52.1957 141.175 50.8918 141.175 49.3541C141.175 47.8164 140.021 46.5994 138.428 46.5994Z" fill="white"/>
<path d="M152.518 52.9263C151.556 53.4747 150.508 53.7438 149.346 53.7438C146.548 53.7438 144.615 51.9701 144.615 49.3976C144.615 46.912 146.408 45.0514 148.894 45.0514C151.598 45.0514 153.339 47.3114 152.846 50.0226H146.373C146.676 51.3865 147.733 52.144 149.344 52.144C150.314 52.144 151.146 51.8915 152.256 51.3616L152.518 52.9263ZM151.296 48.6505C151.183 47.4418 150.316 46.6264 148.948 46.6264C147.58 46.6264 146.556 47.4439 146.426 48.6505H151.296Z" fill="white"/>
<path d="M160.398 45.2273H162.105V50.182C162.097 52.293 160.553 53.7458 158.318 53.7458C156.065 53.7458 154.524 52.3199 154.524 50.2358V45.2294H156.249V49.9398C156.249 51.225 157.088 52.1295 158.32 52.1295C159.558 52.1295 160.4 51.225 160.4 49.9398V45.2273H160.398Z" fill="white"/>
<path d="M167.8 48.7374C169.49 49.0851 170.392 49.797 170.392 51.2499C170.392 52.9366 169.024 53.7438 167.004 53.7438C165.739 53.7438 164.56 53.5099 163.84 53.1188L164.049 51.6328C164.899 52.0074 165.964 52.233 166.89 52.233C168.138 52.233 168.718 51.9204 168.718 51.2768C168.718 50.7118 168.268 50.4076 167.193 50.1902L165.964 49.9378C164.499 49.6418 163.719 48.7995 163.719 47.5122C163.719 46.0966 165.105 45.0535 167.185 45.0535C168.209 45.0535 169.29 45.2542 169.983 45.5585L169.802 47.0527C169.125 46.7568 168.138 46.5664 167.272 46.5664C166.015 46.5664 165.392 46.9223 165.392 47.5391C165.392 48.0606 165.782 48.3214 166.83 48.5387L167.8 48.7374Z" fill="white"/>
<path d="M171.492 52.1357L175.782 46.6864H171.578V45.2273H177.729V46.6615L173.439 52.1108H177.998V53.5699H171.49V52.1357H171.492Z" fill="white"/>
<path d="M178.755 49.3541C178.755 46.7899 180.567 45.0514 182.931 45.0514C184.343 45.0514 185.28 45.5729 185.895 46.3635V45.2252H187.609V53.5679H185.895V52.4296C185.28 53.2202 184.343 53.7417 182.931 53.7417C180.565 53.7438 178.755 51.9184 178.755 49.3541ZM183.138 46.5995C181.535 46.5995 180.47 47.8164 180.47 49.3541C180.47 50.8918 181.537 52.1957 183.138 52.1957C184.739 52.1957 185.884 50.8918 185.884 49.3541C185.884 47.8164 184.733 46.5995 183.138 46.5995Z" fill="white"/>
<path d="M199.119 46.9554L202.091 41.7668H204.171L200.585 47.8598L204.899 53.5699H202.611L198.946 48.6069H196.528V53.5699H194.708V41.7668H196.528V46.9554H199.119Z" fill="white"/>
<path d="M209.208 45.0535C211.738 45.0535 213.628 46.9575 213.628 49.3997C213.628 51.8418 211.74 53.7458 209.208 53.7458C206.676 53.7458 204.788 51.8418 204.788 49.3997C204.788 46.9575 206.678 45.0535 209.208 45.0535ZM209.208 52.1274C210.776 52.1274 211.911 50.9374 211.911 49.3976C211.911 47.8578 210.776 46.6678 209.208 46.6678C207.64 46.6678 206.505 47.8578 206.505 49.3976C206.505 50.9374 207.64 52.1274 209.208 52.1274Z" fill="white"/>
<path d="M218.902 48.7374C220.592 49.0851 221.494 49.797 221.494 51.2499C221.494 52.9366 220.126 53.7438 218.106 53.7438C216.841 53.7438 215.662 53.5099 214.942 53.1187L215.151 51.6328C216.001 52.0074 217.066 52.233 217.992 52.233C219.241 52.233 219.82 51.9204 219.82 51.2768C219.82 50.7118 219.371 50.4075 218.295 50.1902L217.066 49.9377C215.601 49.6418 214.821 48.7995 214.821 47.5122C214.821 46.0965 216.207 45.0535 218.287 45.0535C219.311 45.0535 220.392 45.2542 221.085 45.5584L220.904 47.0527C220.227 46.7568 219.241 46.5663 218.374 46.5663C217.117 46.5663 216.494 46.9223 216.494 47.5391C216.494 48.0606 216.884 48.3214 217.932 48.5387L218.902 48.7374ZM218.729 43.88H217.247L218.564 40.9763H220.487L218.729 43.88Z" fill="white"/>
<path d="M227.317 45.0535C228.417 45.0535 229.422 45.3929 229.812 45.6102L229.63 47.1479C229.04 46.8789 228.27 46.6533 227.317 46.6533C225.54 46.6533 224.319 47.7667 224.319 49.3562C224.319 50.9995 225.54 52.146 227.333 52.146C228.113 52.146 229.005 51.937 229.665 51.6328L229.925 53.1974C229.129 53.5099 228.27 53.7458 227.333 53.7458C224.525 53.7458 222.602 51.9639 222.602 49.3562C222.602 46.8002 224.517 45.0535 227.317 45.0535Z" fill="white"/>
<path d="M231.227 42.4271C231.227 41.802 231.661 41.3674 232.284 41.3674C232.907 41.3674 233.351 41.802 233.351 42.4271C233.351 43.0521 232.909 43.4867 232.284 43.4867C231.658 43.4867 231.227 43.0542 231.227 42.4271ZM231.427 53.5699V45.2273H233.142V53.5699H231.427Z" fill="white"/>
<path d="M241.126 45.2273H242.832V50.182C242.824 52.293 241.28 53.7458 239.046 53.7458C236.792 53.7458 235.251 52.3199 235.251 50.2358V45.2294H236.976V49.9398C236.976 51.225 237.816 52.1295 239.048 52.1295C240.286 52.1295 241.128 51.225 241.128 49.9398V45.2273H241.126Z" fill="white"/>
<path d="M248.527 48.7374C250.217 49.0851 251.119 49.797 251.119 51.2499C251.119 52.9366 249.751 53.7438 247.731 53.7438C246.466 53.7438 245.288 53.5099 244.568 53.1188L244.776 51.6328C245.626 52.0074 246.691 52.233 247.617 52.233C248.866 52.233 249.446 51.9204 249.446 51.2768C249.446 50.7118 248.996 50.4076 247.921 50.1902L246.691 49.9378C245.226 49.6418 244.446 48.7995 244.446 47.5122C244.446 46.0966 245.832 45.0535 247.912 45.0535C248.936 45.0535 250.017 45.2542 250.711 45.5585L250.529 47.0527C249.852 46.7568 248.866 46.5664 247.999 46.5664C246.742 46.5664 246.119 46.9223 246.119 47.5391C246.119 48.0606 246.509 48.3214 247.558 48.5387L248.527 48.7374Z" fill="white"/>
<path d="M252.219 52.1357L256.509 46.6864H252.306V45.2273H258.457V46.6615L254.167 52.1108H258.725V53.5699H252.217V52.1357H252.219Z" fill="white"/>
<path d="M261.94 48.5118H263.473L265.588 45.2273H267.476L264.825 49.2693L267.926 53.572H265.968L263.419 49.975H261.938V53.572H260.223V41.3364H261.938V48.5118H261.94Z" fill="white"/>
<path d="M268.861 42.4271C268.861 41.802 269.294 41.3674 269.917 41.3674C270.541 41.3674 270.984 41.802 270.984 42.4271C270.984 43.0521 270.543 43.4867 269.917 43.4867C269.292 43.4867 268.861 43.0542 268.861 42.4271ZM269.061 53.5699V45.2273H270.776V53.5699H269.061Z" fill="white"/>
</g>
<defs>
<clipPath id="clip0_169_2">
<rect width="291" height="88" fill="white"/>
</clipPath>
</defs>
</svg>
